<?xml version="1.0" encoding="UTF-8" standalone="no"?>
<svg
   width="150"
   height="150"
   fill="currentColor"
   class="bi bi-person-circle"
   viewBox="0 0 150 150"
   version="1.1"
   id="svg1867"
   sodipodi:docname="person-circle.svg"
   inkscape:version="1.1.1 (c3084ef, 2021-09-22)"
   xmlns:inkscape="http://www.inkscape.org/namespaces/inkscape"
   xmlns:sodipodi="http://sodipodi.sourceforge.net/DTD/sodipodi-0.dtd"
   xmlns="http://www.w3.org/2000/svg"
   xmlns:svg="http://www.w3.org/2000/svg">
  <defs
     id="defs1871" />
  <sodipodi:namedview
     id="namedview1869"
     pagecolor="#ffffff"
     bordercolor="#666666"
     borderopacity="1.0"
     inkscape:pageshadow="2"
     inkscape:pageopacity="0.0"
     inkscape:pagecheckerboard="0"
     showgrid="false"
     inkscape:zoom="35.25"
     inkscape:cx="7.9858156"
     inkscape:cy="8"
     inkscape:window-width="1296"
     inkscape:window-height="786"
     inkscape:window-x="0"
     inkscape:window-y="25"
     inkscape:window-maximized="0"
     inkscape:current-layer="svg1867" />
  <path
     d="M11 6a3 3 0 1 1-6 0 3 3 0 0 1 6 0z"
     id="path1863"
     style="fill:#008000" />
  <path
     fill-rule="evenodd"
     d="M0 8a8 8 0 1 1 16 0A8 8 0 0 1 0 8zm8-7a7 7 0 0 0-5.468 11.37C3.242 11.226 4.805 10 8 10s4.757 1.225 5.468 2.37A7 7 0 0 0 8 1z"
     id="path1865"
     style="fill:#008000" />
</svg>
